# xmcd CD database file
#
# Track frame offsets:
#	150
#	28449
#	73194
#	105074
#	139941
#	161274
#	180508
#	219424
#	255425
#
# Disc length: 3764 seconds
#
# Revision: 0
# Processed by: cddbd v1.5.2PL0 Copyright (c) Steve Scherf et al.
# Submitted via: CDex 2.08
#
DISCID=750eb209
DTITLE=Samuel Blais - Equilibrium
DYEAR=2018
DGENRE=Jazz
TTITLE0=From Hangzhou to Nanning
TTITLE1=Imitation Game
TTITLE2=Craig's List
TTITLE3=Unconditional
TTITLE4=Third Row
TTITLE5=12 Shades
TTITLE6=Semi Chubby
TTITLE7=Ups and Downs
TTITLE8=Spiral Vision
EXTD=YEAR: 2018
EXTT0=
EXTT1=
EXTT2=
EXTT3=
EXTT4=
EXTT5=
EXTT6=
EXTT7=
EXTT8=
PLAYORDER=
